<svg width="40" height="40" viewBox="0 0 40 40" fill="none" xmlns="http://www.w3.org/2000/svg">
<rect width="40" height="40" rx="5" fill="#CAD2C5"/>
<path fill-rule="evenodd" clip-rule="evenodd" d="M20 25C23.3137 25 26 22.3137 26 19C26 15.6863 23.3137 13 20 13C16.6863 13 14 15.6863 14 19C14 22.3137 16.6863 25 20 25ZM20 23C22.2091 23 24 21.2091 24 19C24 16.7909 22.2091 15 20 15C17.7909 15 16 16.7909 16 19C16 21.2091 17.7909 23 20 23Z" fill="#2F3E46"/>
<path d="M26 12C25.4477 12 25 12.4477 25 13C25 13.5523 25.4477 14 26 14C26.5523 14 27 13.5523 27 13C27 12.4477 26.5523 12 26 12Z" fill="#2F3E46"/>
<path fill-rule="evenodd" clip-rule="evenodd" d="M9.65396 11.2761C9 12.5595 9 14.2397 9 17.6V20.4C9 23.7603 9 25.4405 9.65396 26.7239C10.2292 27.8529 11.1471 28.7708 12.2761 29.346C13.5595 30 15.2397 30 18.6 30H21.4C24.7603 30 26.4405 30 27.7239 29.346C28.8529 28.7708 29.7708 27.8529 30.346 26.7239C31 25.4405 31 23.7603 31 20.4V17.6C31 14.2397 31 12.5595 30.346 11.2761C29.7708 10.1471 28.8529 9.2292 27.7239 8.65396C26.4405 8 24.7603 8 21.4 8H18.6C15.2397 8 13.5595 8 12.2761 8.65396C11.1471 9.2292 10.2292 10.1471 9.65396 11.2761ZM21.4 10H18.6C16.8868 10 15.7222 10.0016 14.8221 10.0751C13.9452 10.1467 13.4968 10.2766 13.184 10.436C12.4314 10.8195 11.8195 11.4314 11.436 12.184C11.2766 12.4968 11.1467 12.9452 11.0751 13.8221C11.0016 14.7222 11 15.8868 11 17.6V20.4C11 22.1132 11.0016 23.2777 11.0751 24.1779C11.1467 25.0548 11.2766 25.5032 11.436 25.816C11.8195 26.5686 12.4314 27.1805 13.184 27.564C13.4968 27.7234 13.9452 27.8533 14.8221 27.9249C15.7222 27.9984 16.8868 28 18.6 28H21.4C23.1132 28 24.2777 27.9984 25.1779 27.9249C26.0548 27.8533 26.5032 27.7234 26.816 27.564C27.5686 27.1805 28.1805 26.5686 28.564 25.816C28.7234 25.5032 28.8533 25.0548 28.9249 24.1779C28.9984 23.2777 29 22.1132 29 20.4V17.6C29 15.8868 28.9984 14.7222 28.9249 13.8221C28.8533 12.9452 28.7234 12.4968 28.564 12.184C28.1805 11.4314 27.5686 10.8195 26.816 10.436C26.5032 10.2766 26.0548 10.1467 25.1779 10.0751C24.2777 10.0016 23.1132 10 21.4 10Z" fill="#2F3E46"/>
</svg>
