<svg width="1320" height="80" viewBox="0 0 1320 80" fill="none" xmlns="http://www.w3.org/2000/svg">
<path d="M40.5 40H275.5H323.5" stroke="#84A98C" stroke-width="12"/>
<path d="M372 40H607H655" stroke="#84A98C" stroke-width="12"/>
<path d="M660 40H895H943" stroke="#84A98C" stroke-width="12"/>
<path d="M970 40H1205H1253" stroke="#84A98C" stroke-width="12"/>
<circle cx="350" cy="40" r="40" fill="#84A98C"/>
<circle cx="40" cy="40" r="40" fill="#84A98C"/>
<circle cx="660" cy="40" r="40" fill="#84A98C"/>
<circle cx="970" cy="40" r="40" fill="#84A98C"/>
<circle cx="1280" cy="40" r="40" fill="#84A98C"/>
<path d="M30.7422 32.125C30.7422 31.7583 30.8879 31.4065 31.1472 31.1472C31.4065 30.8879 31.7583 30.7422 32.125 30.7422H46.875C47.2417 30.7422 47.5935 30.8879 47.8528 31.1472C48.1121 31.4065 48.2578 31.7583 48.2578 32.125C48.2578 32.4917 48.1121 32.8435 47.8528 33.1028C47.5935 33.3621 47.2417 33.5078 46.875 33.5078H32.125C31.7583 33.5078 31.4065 33.3621 31.1472 33.1028C30.8879 32.8435 30.7422 32.4917 30.7422 32.125ZM32.125 40.8828H46.875C47.2417 40.8828 47.5935 40.7371 47.8528 40.4778C48.1121 40.2185 48.2578 39.8667 48.2578 39.5C48.2578 39.1333 48.1121 38.7815 47.8528 38.5222C47.5935 38.2629 47.2417 38.1172 46.875 38.1172H32.125C31.7583 38.1172 31.4065 38.2629 31.1472 38.5222C30.8879 38.7815 30.7422 39.1333 30.7422 39.5C30.7422 39.8667 30.8879 40.2185 31.1472 40.4778C31.4065 40.7371 31.7583 40.8828 32.125 40.8828ZM39.5 45.4922H32.125C31.7583 45.4922 31.4065 45.6379 31.1472 45.8972C30.8879 46.1565 30.7422 46.5083 30.7422 46.875C30.7422 47.2417 30.8879 47.5935 31.1472 47.8528C31.4065 48.1121 31.7583 48.2578 32.125 48.2578H39.5C39.8667 48.2578 40.2185 48.1121 40.4778 47.8528C40.7371 47.5935 40.8828 47.2417 40.8828 46.875C40.8828 46.5083 40.7371 46.1565 40.4778 45.8972C40.2185 45.6379 39.8667 45.4922 39.5 45.4922ZM61.1641 21.0625V46.1121C61.1648 46.536 61.0818 46.9558 60.9196 47.3474C60.7574 47.739 60.5194 48.0946 60.2191 48.3938L48.3938 60.2191C48.0946 60.5194 47.739 60.7574 47.3474 60.9196C46.9558 61.0818 46.536 61.1648 46.1121 61.1641H21.0625C20.2068 61.1641 19.3861 60.8241 18.781 60.219C18.1759 59.6139 17.8359 58.7932 17.8359 57.9375V21.0625C17.8359 20.2068 18.1759 19.3861 18.781 18.781C19.3861 18.1759 20.2068 17.8359 21.0625 17.8359H57.9375C58.7932 17.8359 59.6139 18.1759 60.219 18.781C60.8241 19.3861 61.1641 20.2068 61.1641 21.0625ZM21.0625 58.3984H45.4922V46.875C45.4922 46.5083 45.6379 46.1565 45.8972 45.8972C46.1565 45.6379 46.5083 45.4922 46.875 45.4922H58.3984V21.0625C58.3984 20.9403 58.3499 20.823 58.2634 20.7366C58.177 20.6501 58.0597 20.6016 57.9375 20.6016H21.0625C20.9403 20.6016 20.823 20.6501 20.7366 20.7366C20.6501 20.823 20.6016 20.9403 20.6016 21.0625V57.9375C20.6016 58.0597 20.6501 58.177 20.7366 58.2634C20.823 58.3499 20.9403 58.3984 21.0625 58.3984ZM56.4441 48.2578H48.2578V56.4441L56.4441 48.2578Z" fill="#F8F8FF"/>
<path d="M350 16C363.255 16 374 26.745 374 40C374 53.255 363.255 64 350 64C336.745 64 326 53.255 326 40C326 26.745 336.745 16 350 16ZM350 20C338.954 20 330 28.954 330 40C330 51.046 338.954 60 350 60C361.046 60 370 51.046 370 40C370 28.954 361.046 20 350 20ZM350.573 26.286V28.973C354.549 29.292 357.428 31.677 357.555 35.287H354.247C354.04 33.283 352.609 32.122 350.573 31.868V38.5L351.337 38.69C355.52 39.661 357.81 41.379 357.81 44.766C357.81 48.663 354.629 50.873 350.573 51.16V53.831H348.776V51.16C344.736 50.857 341.54 48.583 341.429 44.766H344.721C345.007 46.627 346.216 47.995 348.776 48.266V41.33L348.124 41.17C344.084 40.233 341.906 38.42 341.906 35.191C341.906 31.628 344.768 29.275 348.776 28.972V26.285L350.573 26.286ZM350.573 41.744V48.281C353.293 48.074 354.438 46.786 354.438 45.084C354.438 43.446 353.548 42.476 350.573 41.744ZM348.776 31.868C346.486 32.154 345.277 33.474 345.277 34.922C345.277 36.369 346.232 37.434 348.777 38.071L348.776 31.868Z" fill="#F8F8FF"/>
<path d="M670.418 58.7474C672.719 58.7474 674.585 56.8819 674.585 54.5807C674.585 52.2795 672.719 50.4141 670.418 50.4141C668.117 50.4141 666.251 52.2795 666.251 54.5807C666.251 56.8819 668.117 58.7474 670.418 58.7474Z" stroke="#F8F8FF" stroke-width="3.15625" stroke-linecap="round" stroke-linejoin="round"/>
<path d="M649.584 58.7474C651.885 58.7474 653.751 56.8819 653.751 54.5807C653.751 52.2795 651.885 50.4141 649.584 50.4141C647.283 50.4141 645.417 52.2795 645.417 54.5807C645.417 56.8819 647.283 58.7474 649.584 58.7474Z" stroke="#F8F8FF" stroke-width="3.15625" stroke-linecap="round" stroke-linejoin="round"/>
<path d="M639.167 33.7474V44.0536C639.167 49.0161 639.167 51.4974 640.692 53.0391C641.707 54.0641 643.132 54.4078 645.417 54.5224M660.89 25.4141C662.792 26.0391 664.286 27.5474 664.903 29.4703C665.209 30.4203 665.209 31.5953 665.209 33.9495C665.209 35.5161 665.209 36.2995 665.413 36.9328C665.614 37.5627 665.961 38.1361 666.426 38.6061C666.891 39.0762 667.461 39.4294 668.088 39.637C668.715 39.8432 669.49 39.8432 671.042 39.8432H680.834V44.0536C680.834 49.0161 680.834 51.4974 679.309 53.0391C678.295 54.0641 676.87 54.4078 674.584 54.5224M653.751 54.5807H666.251" stroke="#F8F8FF" stroke-width="3.15625" stroke-linecap="round" stroke-linejoin="round"/>
<path d="M665.209 29.5833H669.003C672.036 29.5833 673.551 29.5833 674.784 30.3208C676.02 31.0562 676.738 32.3917 678.176 35.0625L680.834 40M650.265 31.6667L653.361 29.2208C655.009 27.9167 655.834 27.2667 655.834 26.4583M655.834 26.4583C655.834 25.65 655.009 25 653.361 23.6958L650.265 21.25M655.834 26.4583H639.167" stroke="#F8F8FF" stroke-width="3.15625" stroke-linecap="round" stroke-linejoin="round"/>
<path d="M1300.25 28.75V40M1259.75 28.75V51.6122C1259.75 54.724 1264.13 56.5735 1272.88 60.2703C1276.4 61.7575 1278.16 62.5 1280 62.5V38.5487M1286.75 55.75C1286.75 55.75 1288.72 55.75 1290.69 60.25C1290.69 60.25 1296.94 49 1302.5 46.75" stroke="#F8F8FF" stroke-width="3.375" stroke-linecap="round" stroke-linejoin="round"/>
<path d="M1266.5 40L1271 42.25M1291.25 22L1268.75 33.25M1271.73 34.8047L1265.16 31.6255C1261.55 29.8795 1259.75 29.0065 1259.75 27.625C1259.75 26.2435 1261.55 25.3705 1265.16 23.6245L1271.73 20.4453C1275.79 18.481 1277.82 17.5 1280 17.5C1282.18 17.5 1284.21 18.481 1288.27 20.4453L1294.84 23.6245C1298.45 25.3705 1300.25 26.2435 1300.25 27.625C1300.25 29.0065 1298.45 29.8795 1294.84 31.6255L1288.27 34.8047C1284.21 36.769 1282.18 37.75 1280 37.75C1277.82 37.75 1275.79 36.769 1271.73 34.8047Z" stroke="#F8F8FF" stroke-width="3.375" stroke-linecap="round" stroke-linejoin="round"/>
<g clip-path="url(#clip0_0_1)">
<path d="M994.167 41.6084C993.955 41.6097 993.744 41.569 993.548 41.4888C993.352 41.4087 993.173 41.2905 993.023 41.1412L970 18.1023L946.977 41.1412C946.669 41.4051 946.273 41.5431 945.867 41.5274C945.462 41.5117 945.077 41.3437 944.79 41.0567C944.503 40.7698 944.335 40.3852 944.319 39.9797C944.304 39.5742 944.442 39.1777 944.706 38.8695L968.872 14.7029C969.174 14.4028 969.582 14.2344 970.008 14.2344C970.434 14.2344 970.842 14.4028 971.144 14.7029L995.311 38.8695C995.532 39.0957 995.682 39.3822 995.742 39.6932C995.802 40.0042 995.769 40.326 995.647 40.6182C995.525 40.9105 995.319 41.1603 995.056 41.3364C994.793 41.5125 994.483 41.6071 994.167 41.6084Z" fill="#F8F8FF"/>
<path d="M970 23.5508L950.667 42.9486V62.5558C950.667 63.4104 951.006 64.23 951.611 64.8342C952.215 65.4385 953.034 65.778 953.889 65.778H965.167V49.6669H974.833V65.778H986.111C986.966 65.778 987.785 65.4385 988.39 64.8342C988.994 64.23 989.333 63.4104 989.333 62.5558V42.8358L970 23.5508Z" fill="#F8F8FF"/>
</g>
<defs>
<clipPath id="clip0_0_1">
<rect width="58" height="58" fill="white" transform="translate(941 11)"/>
</clipPath>
</defs>
</svg>
