<svg width="295" height="63" viewBox="0 0 295 63" fill="none" xmlns="http://www.w3.org/2000/svg">
<g clip-path="url(#clip0_326_1027)">
<path fill-rule="evenodd" clip-rule="evenodd" d="M31.2953 7.19303L35.4486 0L47.2233 6.79927L43.0716 13.9907C42.3423 15.2523 43.4338 16.7864 44.8639 16.5107L52.8208 14.9751L55.3959 28.3264L47.439 29.8604C34.5681 32.3426 24.7417 18.5456 31.2953 7.19303Z" fill="#3A724F"/>
<path fill-rule="evenodd" clip-rule="evenodd" d="M24.1007 55.8078L19.9474 63.0008L8.1711 56.2031L12.3244 49.0101C13.0536 47.7485 11.9621 46.2145 10.5304 46.4901L2.57512 48.0242L0 34.6745L7.9569 33.1404C20.8278 30.6582 30.6527 44.4552 24.1007 55.8078Z" fill="#DC8E43"/>
<path fill-rule="evenodd" clip-rule="evenodd" d="M24.4598 7.19303L20.3081 0L8.53183 6.79927L12.6851 13.9907C13.4128 15.2523 12.3229 16.7864 10.8912 16.5107L2.93428 14.9751L0.362305 28.3264L8.31763 29.8604C21.1901 32.3426 31.0165 18.5456 24.4614 7.19303H24.4598Z" fill="#14424C"/>
<path fill-rule="evenodd" clip-rule="evenodd" d="M30.9487 55.8078L35.0988 63.0008L46.8751 56.2031L42.7218 49.0101C41.9942 47.7485 43.0841 46.2145 44.5157 46.4901L52.4711 48.0242L55.0462 34.6745L47.0893 33.1404C34.2184 30.6582 24.3935 44.4552 30.9455 55.8078H30.9487Z" fill="#C85D1B"/>
<path d="M256.905 47.4918V34.1043C256.905 32.2489 257.331 30.5841 258.185 29.1115C259.069 27.609 260.321 26.4309 261.941 25.5756C263.562 24.722 265.491 24.2952 267.73 24.2952C268.774 24.285 269.815 24.4185 270.823 24.6921C271.766 24.9283 272.62 25.2669 273.385 25.7079C274.181 26.1206 274.858 26.6214 275.419 27.2105H275.507C276.107 26.613 276.792 26.1068 277.539 25.7079C278.36 25.2562 279.237 24.9146 280.147 24.6921C281.17 24.4205 282.225 24.287 283.284 24.2952C285.522 24.2952 287.452 24.7204 289.072 25.5756C290.691 26.4309 291.944 27.6074 292.827 29.1115C293.712 30.5841 294.153 32.2473 294.153 34.1043V47.4918H287.259V34.3248C287.259 33.5892 287.069 32.9262 286.686 32.3371C286.335 31.721 285.833 31.204 285.228 30.8346C284.589 30.4461 283.854 30.2467 283.106 30.2597C282.311 30.2597 281.59 30.4518 280.942 30.8346C280.336 31.2036 279.835 31.7206 279.484 32.3371C279.126 32.9378 278.943 33.6259 278.953 34.3248V47.4918H272.105V34.3248C272.105 33.5892 271.913 32.9262 271.53 32.3371C271.171 31.7121 270.652 31.1936 270.027 30.8346C269.389 30.4461 268.653 30.2467 267.906 30.2597C267.111 30.2597 266.389 30.4518 265.742 30.8346C265.136 31.2036 264.634 31.7206 264.283 32.3371C263.927 32.9382 263.743 33.626 263.753 34.3248V47.4918H256.905ZM241.925 48.0225C239.598 48.0225 237.579 47.5815 235.872 46.6964C234.193 45.7829 232.897 44.5607 231.983 43.0298C231.07 41.469 230.613 39.7443 230.613 37.8591V24.8244H237.463V37.6827C237.463 38.478 237.653 39.2151 238.036 39.8924C238.419 40.5397 238.935 41.0705 239.583 41.4831C240.26 41.8659 241.027 42.058 241.881 42.058C242.706 42.058 243.441 41.8659 244.09 41.4831C244.768 41.0705 245.298 40.5397 245.681 39.8924C246.064 39.2151 246.256 38.478 246.256 37.6827V24.8244H253.104V37.8591C253.104 39.7443 252.661 41.469 251.778 43.0298C250.894 44.5607 249.614 45.7845 247.935 46.6964C246.284 47.58 244.281 48.0225 241.925 48.0225ZM208.552 47.4918V42.058H219.467C219.761 42.058 220.026 41.9982 220.262 41.88C220.497 41.7336 220.689 41.5414 220.835 41.3067C220.98 41.0746 221.056 40.8067 221.056 40.5334C221.056 40.2601 220.98 39.9922 220.835 39.7601C220.698 39.5329 220.499 39.349 220.262 39.2293C220.024 39.0814 219.747 39.0049 219.467 39.0088H215.49C214.016 39.0088 212.675 38.7726 211.469 38.3016C210.323 37.8269 209.34 37.0283 208.64 36.0037C207.963 34.9437 207.624 33.5735 207.624 31.8945C207.624 30.5983 207.933 29.4202 208.552 28.3602C209.196 27.3035 210.091 26.4226 211.159 25.7961C212.272 25.1498 213.539 24.8142 214.827 24.8244H225.74V30.3038H215.887C215.495 30.2959 215.116 30.4386 214.827 30.7023C214.698 30.8285 214.596 30.9798 214.527 31.147C214.459 31.3141 214.425 31.4934 214.428 31.674C214.428 32.0867 214.562 32.4395 214.827 32.734C215.116 32.9977 215.495 33.1403 215.887 33.1325H219.775C221.424 33.1325 222.839 33.3829 224.017 33.8822C225.225 34.3547 226.153 35.1201 226.802 36.1817C227.479 37.2417 227.817 38.6103 227.817 40.2893C227.817 41.6154 227.479 42.8235 226.802 43.9118C226.159 44.9966 225.245 45.8955 224.149 46.52C223.059 47.1689 221.823 47.4918 220.439 47.4918H208.552ZM193.63 24.2952C195.546 24.2952 197.239 24.6039 198.711 25.2228C200.158 25.7743 201.458 26.6511 202.512 27.7854C203.586 28.8967 204.414 30.2217 204.942 31.674C205.501 33.1467 205.782 34.7815 205.782 36.5786C205.782 38.8167 205.311 40.8059 204.367 42.5431C203.496 44.208 202.181 45.5996 200.568 46.5641C198.948 47.5359 197.062 48.0225 194.913 48.0225C193.999 48.0225 193.13 47.9044 192.304 47.6697C191.523 47.4399 190.779 47.0971 190.096 46.6523C189.453 46.2157 188.898 45.661 188.461 45.0174H188.327V57.0819H181.479V36.577C181.479 34.0728 181.98 31.9071 182.982 30.0817C183.953 28.2849 185.427 26.8103 187.223 25.8387C189.05 24.8086 191.186 24.2936 193.63 24.2936V24.2952ZM193.63 30.2156C192.571 30.2156 191.643 30.4802 190.847 31.011C190.08 31.5118 189.491 32.219 189.079 33.1325C188.668 34.0145 188.461 35.0178 188.461 36.136C188.461 37.2558 188.668 38.2575 189.079 39.1411C189.491 40.0247 190.08 40.7319 190.847 41.2626C191.643 41.7635 192.571 42.0139 193.63 42.0139C194.69 42.0139 195.604 41.7619 196.369 41.2626C197.14 40.7281 197.751 39.995 198.138 39.1411C198.579 38.2575 198.8 37.2558 198.8 36.136C198.8 35.0178 198.579 34.0161 198.138 33.1325C197.725 32.219 197.136 31.5102 196.369 31.011C195.604 30.4802 194.69 30.2156 193.63 30.2156ZM171.072 47.4918V24.8244H177.966V47.4918H171.072ZM174.518 22.2618C173.428 22.2618 172.486 21.8649 171.691 21.0696C170.895 20.2742 170.497 19.3308 170.497 18.2409C170.497 17.151 170.895 16.2091 171.691 15.4137C172.486 14.5884 173.428 14.1758 174.518 14.1758C175.608 14.1758 176.551 14.5884 177.347 15.4137C178.142 16.2091 178.539 17.151 178.539 18.2409C178.539 19.3308 178.142 20.2726 177.347 21.0696C176.551 21.8649 175.608 22.2618 174.518 22.2618ZM156.09 48.0225C153.764 48.0225 151.672 47.5075 149.816 46.4759C147.994 45.4773 146.47 44.0138 145.398 42.2344C144.338 40.4373 143.807 38.4198 143.807 36.1801C143.807 33.9121 144.338 31.8945 145.398 30.1274C146.47 28.348 147.994 26.8844 149.816 25.8859C151.672 24.8244 153.764 24.2952 156.09 24.2952C158.418 24.2952 160.494 24.8244 162.321 25.8859C164.136 26.8775 165.648 28.3435 166.695 30.1274C167.785 31.8945 168.33 33.9121 168.33 36.1801C168.33 38.4198 167.785 40.4373 166.695 42.2344C165.648 44.0183 164.136 45.4843 162.321 46.4759C160.466 47.5075 158.388 48.0225 156.09 48.0225ZM156.09 42.058C157.18 42.058 158.124 41.7918 158.919 41.2626C159.715 40.7324 160.355 40.0002 160.774 39.1411C161.217 38.2575 161.437 37.2558 161.437 36.136C161.437 35.0461 161.217 34.0602 160.774 33.175C160.355 32.3164 159.714 31.5848 158.919 31.0551C158.124 30.5243 157.18 30.2597 156.09 30.2597C155 30.2597 154.043 30.5243 153.219 31.0551C152.423 31.5853 151.782 32.3174 151.362 33.1766C150.912 34.0979 150.686 35.1123 150.701 36.1376C150.701 37.2558 150.921 38.2575 151.362 39.1411C151.782 40.0002 152.423 40.7323 153.219 41.2626C154.043 41.7918 155 42.058 156.09 42.058ZM121.549 56.463V50.5851H132.859C133.302 50.5851 133.67 50.4386 133.965 50.1441C134.108 50.0172 134.222 49.8602 134.298 49.6844C134.375 49.5086 134.411 49.3182 134.406 49.1266V44.1339H134.273C133.714 44.7845 133.076 45.3633 132.374 45.8569C131.725 46.3294 130.988 46.6822 130.164 46.9185C129.288 47.1648 128.38 47.2836 127.469 47.2713C125.466 47.2713 123.669 46.7988 122.078 45.8569C120.517 44.8851 119.279 43.5448 118.366 41.8359C117.484 40.1286 117.041 38.1835 117.041 36.0037C117.041 33.8538 117.498 31.8945 118.412 30.1274C119.353 28.3602 120.724 26.9459 122.521 25.8859C124.316 24.8244 126.512 24.2952 129.104 24.2952C131.579 24.2952 133.714 24.8102 135.511 25.8418C137.316 26.8213 138.791 28.3115 139.753 30.1258C140.755 31.9528 141.255 34.1043 141.255 36.5786V49.8338C141.255 51.8655 140.652 53.472 139.444 54.6501C138.266 55.8582 136.631 56.4614 134.54 56.4614L121.549 56.463ZM129.148 41.5272C130.208 41.5272 131.122 41.291 131.889 40.8201C132.646 40.3287 133.256 39.6419 133.654 38.8324C134.073 37.9803 134.285 37.0414 134.273 36.0919C134.273 35.0319 134.069 34.0602 133.656 33.1766C133.243 32.293 132.654 31.6 131.887 31.0992C131.122 30.5684 130.208 30.3038 129.147 30.3038C128.117 30.3038 127.203 30.5542 126.408 31.0551C125.642 31.5559 125.053 32.2332 124.641 33.0868C124.23 33.942 124.023 34.8981 124.023 35.9596C124.023 36.9912 124.228 37.9331 124.641 38.7883C125.053 39.612 125.642 40.2751 126.409 40.776C127.203 41.2768 128.117 41.5272 129.148 41.5272ZM103.12 48.0225C100.794 48.0225 98.7021 47.5075 96.8467 46.4759C95.0245 45.4777 93.4995 44.0141 92.4273 42.2344C91.3673 40.4373 90.8365 38.4198 90.8365 36.1801C90.8365 33.9121 91.3673 31.8945 92.4273 30.1274C93.4995 28.3477 95.0245 26.8841 96.8467 25.8859C98.7021 24.8244 100.794 24.2952 103.12 24.2952C105.448 24.2952 107.524 24.8244 109.351 25.8859C111.166 26.8776 112.677 28.3436 113.724 30.1274C114.814 31.8945 115.359 33.9121 115.359 36.1801C115.359 38.4198 114.814 40.4373 113.724 42.2344C112.677 44.0182 111.166 45.4841 109.351 46.4759C107.495 47.5075 105.418 48.0225 103.12 48.0225ZM103.12 42.058C104.21 42.058 105.152 41.7918 105.949 41.2626C106.744 40.7321 107.384 40 107.804 39.1411C108.245 38.2575 108.465 37.2558 108.465 36.136C108.465 35.0461 108.245 34.0602 107.804 33.175C107.384 32.3167 106.744 31.5851 105.949 31.0551C105.153 30.5243 104.21 30.2597 103.12 30.2597C102.03 30.2597 101.072 30.5243 100.249 31.0551C99.4528 31.5853 98.812 32.3174 98.3918 33.1766C97.9418 34.0979 97.7152 35.1123 97.7303 36.1376C97.7303 37.2558 97.9508 38.2575 98.3918 39.1411C98.8121 40.0002 99.4529 40.7323 100.249 41.2626C101.072 41.7918 102.03 42.058 103.12 42.058ZM81.1865 47.4918C79.2713 47.4918 77.5923 47.0665 76.1496 46.2113C74.7465 45.3977 73.587 44.2229 72.7917 42.8093C71.9964 41.3949 71.5979 39.8325 71.5979 38.1252V16.5619H79.0209V38.6544C79.0209 39.3632 79.2729 39.9806 79.7721 40.5114C80.273 41.0406 80.8904 41.3067 81.6275 41.3067H89.8017V47.4918H81.1865Z" fill="#14424C"/>
</g>
<defs>
<clipPath id="clip0_326_1027">
<rect width="294.525" height="63" fill="white"/>
</clipPath>
</defs>
</svg>
