<svg width="295" height="63" viewBox="0 0 295 63" fill="none" xmlns="http://www.w3.org/2000/svg">
<g clip-path="url(#clip0_326_1027)">
<path fill-rule="evenodd" clip-rule="evenodd" d="M31.2953 7.19303L35.4486 0L47.2233 6.79928L43.0716 13.9907C42.3423 15.2523 43.4338 16.7864 44.8639 16.5107L52.8208 14.9751L55.3959 28.3264L47.439 29.8604C34.5681 32.3426 24.7417 18.5456 31.2953 7.19303Z" fill="#3A724F"/>
<path fill-rule="evenodd" clip-rule="evenodd" d="M24.1007 55.8078L19.9474 63.0008L8.1711 56.2031L12.3244 49.0101C13.0536 47.7485 11.9621 46.2145 10.5305 46.4901L2.57513 48.0242L0 34.6745L7.9569 33.1404C20.8278 30.6582 30.6527 44.4552 24.1007 55.8078Z" fill="#DC8E43"/>
<path fill-rule="evenodd" clip-rule="evenodd" d="M24.4598 7.19303L20.3081 0L8.53183 6.79928L12.6851 13.9907C13.4128 15.2523 12.3229 16.7864 10.8912 16.5107L2.93428 14.9751L0.362305 28.3264L8.31763 29.8604C21.1901 32.3426 31.0165 18.5456 24.4614 7.19303H24.4598Z" fill="#14424C"/>
<path fill-rule="evenodd" clip-rule="evenodd" d="M30.9487 55.8078L35.0988 63.0008L46.8751 56.2031L42.7218 49.0101C41.9942 47.7485 43.0841 46.2145 44.5157 46.4901L52.4711 48.0242L55.0462 34.6745L47.0893 33.1404C34.2184 30.6582 24.3935 44.4552 30.9455 55.8078H30.9487Z" fill="#C85D1B"/>
<path d="M85.976 46.798C83.232 46.798 80.838 46.35 78.794 45.454C76.75 44.53 75.056 43.298 73.712 41.758C72.396 40.218 71.416 38.51 70.772 36.634C70.128 34.758 69.806 32.882 69.806 31.006V30.082C69.806 28.15 70.128 26.26 70.772 24.412C71.416 22.564 72.382 20.884 73.67 19.372C74.986 17.86 76.61 16.656 78.542 15.76C80.502 14.864 82.756 14.416 85.304 14.416C88.076 14.416 90.526 14.934 92.654 15.97C94.782 16.978 96.49 18.392 97.778 20.212C99.066 22.004 99.808 24.09 100.004 26.47H93.116C92.948 25.35 92.5 24.37 91.772 23.53C91.072 22.69 90.162 22.032 89.042 21.556C87.95 21.08 86.704 20.842 85.304 20.842C83.96 20.842 82.756 21.08 81.692 21.556C80.656 22.032 79.76 22.704 79.004 23.572C78.276 24.44 77.716 25.476 77.324 26.68C76.96 27.856 76.778 29.158 76.778 30.586C76.778 32.07 76.974 33.428 77.366 34.66C77.786 35.864 78.388 36.914 79.172 37.81C79.956 38.678 80.922 39.35 82.07 39.826C83.246 40.302 84.548 40.54 85.976 40.54C87.88 40.54 89.532 40.148 90.932 39.364C92.332 38.58 93.34 37.544 93.956 36.256L93.116 40.96V33.652H99.458V40.204C98.142 42.332 96.322 43.97 93.998 45.118C91.702 46.238 89.028 46.798 85.976 46.798ZM85.094 34.996V30.04H101.978V34.996H85.094ZM106.052 46V22.984H111.386V32.854H111.26C111.26 29.606 111.946 27.1 113.318 25.336C114.718 23.572 116.734 22.69 119.366 22.69H120.248V28.486H118.568C116.72 28.486 115.292 28.99 114.284 29.998C113.276 30.978 112.772 32.406 112.772 34.282V46H106.052ZM134.149 46.798C132.189 46.798 130.453 46.462 128.941 45.79C127.457 45.118 126.211 44.222 125.203 43.102C124.223 41.954 123.467 40.68 122.935 39.28C122.431 37.852 122.179 36.396 122.179 34.912V34.072C122.179 32.532 122.431 31.062 122.935 29.662C123.467 28.234 124.223 26.96 125.203 25.84C126.183 24.72 127.401 23.838 128.857 23.194C130.341 22.522 132.021 22.186 133.897 22.186C136.361 22.186 138.433 22.746 140.113 23.866C141.821 24.958 143.123 26.4 144.019 28.192C144.915 29.956 145.363 31.888 145.363 33.988V36.256H124.993V32.434H141.289L139.105 34.198C139.105 32.826 138.909 31.65 138.517 30.67C138.125 29.69 137.537 28.948 136.753 28.444C135.997 27.912 135.045 27.646 133.897 27.646C132.721 27.646 131.727 27.912 130.915 28.444C130.103 28.976 129.487 29.76 129.067 30.796C128.647 31.804 128.437 33.05 128.437 34.534C128.437 35.906 128.633 37.11 129.025 38.146C129.417 39.154 130.033 39.938 130.873 40.498C131.713 41.058 132.805 41.338 134.149 41.338C135.381 41.338 136.389 41.1 137.173 40.624C137.957 40.148 138.489 39.56 138.769 38.86H144.943C144.607 40.4 143.949 41.772 142.969 42.976C141.989 44.18 140.757 45.118 139.273 45.79C137.789 46.462 136.081 46.798 134.149 46.798ZM160.358 46.798C158.398 46.798 156.662 46.462 155.15 45.79C153.666 45.118 152.42 44.222 151.412 43.102C150.432 41.954 149.676 40.68 149.144 39.28C148.64 37.852 148.388 36.396 148.388 34.912V34.072C148.388 32.532 148.64 31.062 149.144 29.662C149.676 28.234 150.432 26.96 151.412 25.84C152.392 24.72 153.61 23.838 155.066 23.194C156.55 22.522 158.23 22.186 160.106 22.186C162.57 22.186 164.642 22.746 166.322 23.866C168.03 24.958 169.332 26.4 170.228 28.192C171.124 29.956 171.572 31.888 171.572 33.988V36.256H151.202V32.434H167.498L165.314 34.198C165.314 32.826 165.118 31.65 164.726 30.67C164.334 29.69 163.746 28.948 162.962 28.444C162.206 27.912 161.254 27.646 160.106 27.646C158.93 27.646 157.936 27.912 157.124 28.444C156.312 28.976 155.696 29.76 155.276 30.796C154.856 31.804 154.646 33.05 154.646 34.534C154.646 35.906 154.842 37.11 155.234 38.146C155.626 39.154 156.242 39.938 157.082 40.498C157.922 41.058 159.014 41.338 160.358 41.338C161.59 41.338 162.598 41.1 163.382 40.624C164.166 40.148 164.698 39.56 164.978 38.86H171.152C170.816 40.4 170.158 41.772 169.178 42.976C168.198 44.18 166.966 45.118 165.482 45.79C163.998 46.462 162.29 46.798 160.358 46.798ZM176.025 46V22.984H181.359V32.854H180.981C180.981 30.502 181.275 28.542 181.863 26.974C182.479 25.406 183.403 24.23 184.635 23.446C185.867 22.662 187.365 22.27 189.129 22.27H189.423C192.111 22.27 194.155 23.152 195.555 24.916C196.983 26.652 197.697 29.298 197.697 32.854V46H190.977V32.476C190.977 31.244 190.613 30.236 189.885 29.452C189.157 28.668 188.177 28.276 186.945 28.276C185.685 28.276 184.663 28.682 183.879 29.494C183.123 30.278 182.745 31.314 182.745 32.602V46H176.025ZM204.515 46V22.984H211.235V46H204.515ZM201.449 27.94V22.984H211.235V27.94H201.449ZM207.119 20.716C205.859 20.716 204.921 20.394 204.305 19.75C203.717 19.078 203.423 18.238 203.423 17.23C203.423 16.194 203.717 15.354 204.305 14.71C204.921 14.038 205.859 13.702 207.119 13.702C208.379 13.702 209.303 14.038 209.891 14.71C210.507 15.354 210.815 16.194 210.815 17.23C210.815 18.238 210.507 19.078 209.891 19.75C209.303 20.394 208.379 20.716 207.119 20.716ZM227.993 46.798C226.033 46.798 224.297 46.462 222.785 45.79C221.301 45.118 220.055 44.222 219.047 43.102C218.067 41.954 217.311 40.68 216.779 39.28C216.275 37.852 216.023 36.396 216.023 34.912V34.072C216.023 32.532 216.275 31.062 216.779 29.662C217.311 28.234 218.067 26.96 219.047 25.84C220.027 24.72 221.245 23.838 222.701 23.194C224.185 22.522 225.865 22.186 227.741 22.186C230.205 22.186 232.277 22.746 233.957 23.866C235.665 24.958 236.967 26.4 237.863 28.192C238.759 29.956 239.207 31.888 239.207 33.988V36.256H218.837V32.434H235.133L232.949 34.198C232.949 32.826 232.753 31.65 232.361 30.67C231.969 29.69 231.381 28.948 230.597 28.444C229.841 27.912 228.889 27.646 227.741 27.646C226.565 27.646 225.571 27.912 224.759 28.444C223.947 28.976 223.331 29.76 222.911 30.796C222.491 31.804 222.281 33.05 222.281 34.534C222.281 35.906 222.477 37.11 222.869 38.146C223.261 39.154 223.877 39.938 224.717 40.498C225.557 41.058 226.649 41.338 227.993 41.338C229.225 41.338 230.233 41.1 231.017 40.624C231.801 40.148 232.333 39.56 232.613 38.86H238.787C238.451 40.4 237.793 41.772 236.813 42.976C235.833 44.18 234.601 45.118 233.117 45.79C231.633 46.462 229.925 46.798 227.993 46.798Z" fill="#14424C"/>
</g>
<defs>
<clipPath id="clip0_326_1027">
<rect width="294.525" height="63" fill="white"/>
</clipPath>
</defs>
</svg>
