<svg width="48" height="48" viewBox="0 0 48 48" fill="none" xmlns="http://www.w3.org/2000/svg">
<g clip-path="url(#clip0_1241_1702)">
<path d="M0.357269 12.2963C0.357269 10.7352 0.97742 9.23806 2.08129 8.13418C3.18517 7.03031 4.68234 6.41016 6.24346 6.41016H41.5606C43.1217 6.41016 44.6189 7.03031 45.7228 8.13418C46.8266 9.23806 47.4468 10.7352 47.4468 12.2963V15.2394H0.357269V12.2963ZM0.357269 21.1256V35.8411C0.357269 37.4022 0.97742 38.8994 2.08129 40.0033C3.18517 41.1071 4.68234 41.7273 6.24346 41.7273H41.5606C43.1217 41.7273 44.6189 41.1071 45.7228 40.0033C46.8266 38.8994 47.4468 37.4022 47.4468 35.8411V21.1256H0.357269ZM9.18655 27.0118H12.1296C12.9102 27.0118 13.6588 27.3219 14.2107 27.8738C14.7627 28.4258 15.0727 29.1744 15.0727 29.9549V32.898C15.0727 33.6786 14.7627 34.4272 14.2107 34.9791C13.6588 35.531 12.9102 35.8411 12.1296 35.8411H9.18655C8.406 35.8411 7.65741 35.531 7.10547 34.9791C6.55353 34.4272 6.24346 33.6786 6.24346 32.898V29.9549C6.24346 29.1744 6.55353 28.4258 7.10547 27.8738C7.65741 27.3219 8.406 27.0118 9.18655 27.0118Z" fill="black"/>
</g>
<defs>
<clipPath id="clip0_1241_1702">
<rect width="47.0895" height="47.0895" fill="white" transform="translate(0.3573 0.523438)"/>
</clipPath>
</defs>
</svg>
