<svg width="54" height="54" viewBox="0 0 54 54" fill="none" xmlns="http://www.w3.org/2000/svg">
<path d="M34.8062 37.1922L28.0666 30.4527C27.8203 30.2064 27.5292 30.1617 27.3725 30.1617C27.2157 30.1617 26.9247 30.2064 26.6784 30.4527L19.9164 37.2146C19.1551 37.9758 17.9684 39.2073 14.0053 39.2073L22.3122 47.4917C23.5717 48.7496 25.2789 49.4561 27.059 49.4561C28.8391 49.4561 30.5463 48.7496 31.8058 47.4917L40.1351 39.1849C38.0976 39.1849 36.3959 38.7819 34.8062 37.1922ZM19.9164 16.929L26.6784 23.6909C26.8575 23.87 27.1262 23.982 27.3725 23.982C27.6188 23.982 27.8875 23.87 28.0666 23.6909L34.7614 16.9962C36.3511 15.3393 38.1647 14.9587 40.2023 14.9587L31.873 6.65193C30.6135 5.39404 28.9062 4.6875 27.1262 4.6875C25.3461 4.6875 23.6388 5.39404 22.3794 6.65193L14.0725 14.9363C18.0132 14.9363 19.2223 16.2349 19.9164 16.929Z" fill="black"/>
<path d="M47.4785 22.2534L42.4406 17.1932H39.6194C38.4103 17.1932 37.2012 17.6858 36.3728 18.559L29.6556 25.2761C29.0286 25.903 28.2002 26.2165 27.3717 26.2165C26.5186 26.2045 25.7021 25.8682 25.0879 25.2761L18.3259 18.4919C17.4751 17.641 16.3108 17.1484 15.0793 17.1484H11.7879L6.66042 22.2982C5.40252 23.5576 4.69596 25.2649 4.69596 27.0449C4.69596 28.8249 5.40252 30.5322 6.66042 31.7916L11.7879 36.9414H15.1017C16.3108 36.9414 17.4751 36.4488 18.3483 35.598L25.1103 28.8361C25.7372 28.2092 26.5657 27.8957 27.3941 27.8957C28.2226 27.8957 29.051 28.2092 29.678 28.8361L36.4175 35.5756C37.2684 36.4264 38.4327 36.919 39.6642 36.919H42.4854L47.5233 31.8588C48.7865 30.5767 49.4908 28.8467 49.4824 27.0469C49.4741 25.247 48.7536 23.5237 47.4785 22.2534Z" fill="black"/>
</svg>
