<svg width="51" height="51" viewBox="0 0 51 51" fill="none" xmlns="http://www.w3.org/2000/svg">
<g filter="url(#filter0_d_0_1)">
<path d="M25.1615 0L33.6423 1.68694L40.832 6.49094L45.636 13.6806L47.3229 22.1615L45.636 30.6423L40.832 37.832L33.6423 42.636L25.1615 44.3229L16.6806 42.636L9.49094 37.832L4.68694 30.6423L3 22.1615L4.68694 13.6806L9.49094 6.49094L16.6806 1.68694L25.1615 0Z" fill="#52796F"/>
</g>
<path d="M31.8119 14.9754L32.2668 16.3401C32.4068 16.7697 32.6872 17.1398 33.0628 17.3909L34.2137 18.1642C34.6 18.4235 34.8858 18.8075 35.0232 19.252C35.1606 19.6966 35.1414 20.1748 34.9688 20.6069L34.5139 21.7123C34.3159 22.2009 34.3159 22.7475 34.5139 23.2361L34.9688 24.3142C35.141 24.7376 35.1656 25.2067 35.0385 25.6458C34.9114 26.0848 34.64 26.4683 34.2683 26.7342L33.2493 27.4802C32.8742 27.7468 32.6013 28.1336 32.476 28.5765L32.1076 29.8683C31.9793 30.3219 31.6971 30.7166 31.3094 30.9847C30.9218 31.2528 30.4529 31.3776 29.9833 31.3376L28.8779 31.2466C28.3548 31.2032 27.8354 31.3665 27.4314 31.7015L26.3669 32.5612C26.004 32.8572 25.5501 33.0188 25.0819 33.0188C24.6136 33.0188 24.1597 32.8572 23.7968 32.5612L22.8871 31.8152C22.5224 31.5181 22.0656 31.3573 21.5952 31.3604H19.9758C19.5163 31.3615 19.0701 31.2064 18.7105 30.9203C18.3509 30.6343 18.0993 30.2344 17.9971 29.7865L17.7059 28.5492C17.6008 28.039 17.3025 27.5892 16.8735 27.2937L15.891 26.6068C15.5169 26.3541 15.2381 25.9836 15.0988 25.5541C14.9595 25.1247 14.9677 24.6611 15.1222 24.2369L15.5771 22.9905C15.7454 22.5371 15.7454 22.0383 15.5771 21.5849L15.1677 20.4932C15.0086 20.0619 15.0008 19.5893 15.1454 19.153C15.29 18.7166 15.5786 18.3423 15.9637 18.0914L17.0418 17.3954C17.4586 17.1258 17.7627 16.7134 17.897 16.2355L18.2154 15.0892C18.343 14.6327 18.626 14.2352 19.0155 13.9653C19.4051 13.6954 19.8767 13.57 20.3488 13.6108L21.3678 13.6972C21.892 13.7385 22.412 13.5755 22.8188 13.2423L23.7877 12.4599C24.1517 12.1625 24.6073 12 25.0773 12C25.5474 12 26.003 12.1625 26.3669 12.4599L27.213 13.1696C27.6201 13.5056 28.1426 13.6689 28.6686 13.6244L29.7376 13.5471C30.1936 13.5175 30.6462 13.6423 31.0225 13.9015C31.3988 14.1606 31.6769 14.5389 31.8119 14.9754Z" stroke="white" stroke-width="1.36465"/>
<path d="M22.5323 20.6251C23.4794 20.6251 24.2472 19.8573 24.2472 18.9102C24.2472 17.9631 23.4794 17.1953 22.5323 17.1953C21.5852 17.1953 20.8174 17.9631 20.8174 18.9102C20.8174 19.8573 21.5852 20.6251 22.5323 20.6251Z" stroke="white" stroke-width="1.36465"/>
<path d="M27.7633 27.8322C28.7104 27.8322 29.4782 27.0644 29.4782 26.1173C29.4782 25.1701 28.7104 24.4023 27.7633 24.4023C26.8161 24.4023 26.0483 25.1701 26.0483 26.1173C26.0483 27.0644 26.8161 27.8322 27.7633 27.8322Z" stroke="white" stroke-width="1.36465"/>
<path d="M29.4786 18.0508L20.4446 27.0893" stroke="white" stroke-width="1.36465"/>
<defs>
<filter id="filter0_d_0_1" x="0.0935791" y="0" width="50.1358" height="50.1371" filterUnits="userSpaceOnUse" color-interpolation-filters="sRGB">
<feFlood flood-opacity="0" result="BackgroundImageFix"/>
<feColorMatrix in="SourceAlpha" type="matrix" values="0 0 0 0 0 0 0 0 0 0 0 0 0 0 0 0 0 0 127 0" result="hardAlpha"/>
<feOffset dy="2.90642"/>
<feGaussianBlur stdDeviation="1.45321"/>
<feComposite in2="hardAlpha" operator="out"/>
<feColorMatrix type="matrix" values="0 0 0 0 0 0 0 0 0 0 0 0 0 0 0 0 0 0 0.25 0"/>
<feBlend mode="normal" in2="BackgroundImageFix" result="effect1_dropShadow_0_1"/>
<feBlend mode="normal" in="SourceGraphic" in2="effect1_dropShadow_0_1" result="shape"/>
</filter>
</defs>
</svg>
