<svg width="646" height="702" viewBox="0 0 646 702" fill="none" xmlns="http://www.w3.org/2000/svg">
<path fill-rule="evenodd" clip-rule="evenodd" d="M364.944 80.4301L413.378 0.394531L550.688 76.049L502.273 156.067C493.769 170.104 506.498 187.174 523.175 184.107L615.964 167.02L645.994 315.578L553.205 332.647C403.111 360.266 288.52 206.749 364.944 80.4301Z" fill="#3A724F"/>
<path fill-rule="evenodd" clip-rule="evenodd" d="M281.044 621.361L232.611 701.396L95.2815 625.759L143.715 545.724C152.219 531.686 139.491 514.617 122.795 517.684L30.024 534.753L-0.00585938 386.213L92.7836 369.144C242.878 341.525 357.45 495.042 281.044 621.361Z" fill="#DC8E43"/>
<path fill-rule="evenodd" clip-rule="evenodd" d="M285.232 80.4301L236.817 0.394531L99.4882 76.049L147.922 156.067C156.407 170.104 143.697 187.174 127.002 184.107L34.2123 167.02L4.21924 315.578L96.9903 332.647C247.103 360.266 361.694 206.749 285.251 80.4301H285.232Z" fill="#14424C"/>
<path fill-rule="evenodd" clip-rule="evenodd" d="M360.902 621.361L409.299 701.396L546.628 625.759L498.195 545.724C489.709 531.686 502.419 514.617 519.114 517.684L611.885 534.753L641.915 386.213L549.126 369.144C399.032 341.525 284.459 495.042 360.866 621.361H360.902Z" fill="#C85D1B"/>
</svg>
