<svg width="51" height="51" viewBox="0 0 51 51" fill="none" xmlns="http://www.w3.org/2000/svg">
<g filter="url(#filter0_d_1028_3249)">
<path d="M25.1615 0L33.6423 1.68694L40.832 6.49094L45.636 13.6806L47.3229 22.1615L45.636 30.6423L40.832 37.832L33.6423 42.636L25.1615 44.3229L16.6806 42.636L9.49094 37.832L4.68694 30.6423L3 22.1615L4.68694 13.6806L9.49094 6.49094L16.6806 1.68694L25.1615 0Z" fill="#52796F"/>
</g>
<path d="M18.8699 21.2102C18.6418 21.3454 18.3694 21.3845 18.1124 21.3189C17.8555 21.2532 17.6352 21.0882 17.4999 20.8602L15.2899 17.1202C15.1144 16.8161 15.022 16.4713 15.022 16.1202C15.022 15.7691 15.1144 15.4242 15.2899 15.1202C15.4603 14.79 15.7164 14.5119 16.0314 14.3148C16.3463 14.1177 16.7085 14.0091 17.0799 14.0002H21.5899L21.2899 13.7102C21.1016 13.5219 20.9958 13.2665 20.9958 13.0002C20.9958 12.7339 21.1016 12.4785 21.2899 12.2902C21.4782 12.1019 21.7336 11.9961 21.9999 11.9961C22.2662 11.9961 22.5216 12.1019 22.7099 12.2902L24.7099 14.2902C24.8814 14.4751 24.9767 14.718 24.9767 14.9702C24.9767 15.2224 24.8814 15.4653 24.7099 15.6502L23.0099 17.6502C22.8375 17.8517 22.5921 17.9766 22.3277 17.9972C22.0633 18.0178 21.8015 17.9326 21.5999 17.7602C21.3984 17.5878 21.2735 17.3424 21.2529 17.078C21.2323 16.8135 21.3175 16.5517 21.4899 16.3502L21.8399 16.0002H17.0899C17.0773 15.9947 17.0637 15.9918 17.0499 15.9918C17.0362 15.9918 17.0225 15.9947 17.0099 16.0002L19.2199 19.8402C19.3551 20.0683 19.3942 20.3407 19.3286 20.5977C19.263 20.8546 19.098 21.0749 18.8699 21.2102ZM34.7099 15.0002C34.5168 14.6969 34.2511 14.4465 33.9368 14.2719C33.6224 14.0973 33.2695 14.0039 32.9099 14.0002L28.9999 14.0502C28.7347 14.0502 28.4804 14.1555 28.2928 14.3431C28.1053 14.5306 27.9999 14.785 27.9999 15.0502C27.9999 15.3154 28.1053 15.5698 28.2928 15.7573C28.4804 15.9448 28.7347 16.0502 28.9999 16.0502H32.9999C33.0116 16.079 33.0116 16.1113 32.9999 16.1402L30.6199 20.2502L30.4699 19.8202C30.4324 19.6887 30.3684 19.5662 30.2817 19.4604C30.195 19.3547 30.0875 19.2678 29.9659 19.2052C29.8443 19.1426 29.7112 19.1056 29.5747 19.0965C29.4382 19.0874 29.3014 19.1064 29.1725 19.1524C29.0437 19.1983 28.9257 19.2701 28.8257 19.3635C28.7257 19.4568 28.646 19.5697 28.5914 19.6951C28.5368 19.8204 28.5085 19.9557 28.5082 20.0925C28.508 20.2292 28.5358 20.3646 28.5899 20.4902L29.4699 22.9602C29.5381 23.1553 29.6652 23.3245 29.8335 23.4445C30.0018 23.5645 30.2032 23.6294 30.4099 23.6302C30.496 23.644 30.5838 23.644 30.6699 23.6302L33.3999 22.9002C33.5306 22.8697 33.6539 22.8133 33.7623 22.7342C33.8707 22.6551 33.9621 22.555 34.0311 22.4399C34.1 22.3247 34.145 22.1968 34.1635 22.0639C34.182 21.931 34.1735 21.7957 34.1386 21.6661C34.1037 21.5365 34.043 21.4153 33.9603 21.3096C33.8775 21.204 33.7743 21.1161 33.6569 21.0511C33.5394 20.9862 33.4101 20.9456 33.2766 20.9317C33.1432 20.9177 33.0082 20.9308 32.8799 20.9702L32.4799 21.0802L34.7399 17.1702C34.933 16.84 35.0323 16.4634 35.027 16.081C35.0217 15.6986 34.9121 15.3249 34.7099 15.0002ZM28.5799 25.8002C28.3491 25.6706 28.0763 25.6379 27.8214 25.7091C27.5665 25.7803 27.3502 25.9497 27.2199 26.1802L24.9999 30.0002L22.5899 25.8402L23.0399 25.9202C23.3051 25.9679 23.5785 25.9084 23.7997 25.7546C24.021 25.6008 24.1722 25.3654 24.2199 25.1002C24.2677 24.835 24.2081 24.5617 24.0543 24.3404C23.9005 24.1191 23.6651 23.9679 23.3999 23.9202L20.8199 23.4502C20.5728 23.4036 20.3173 23.4519 20.1041 23.5853C19.891 23.7187 19.736 23.9276 19.6699 24.1702L18.9399 26.9002C18.9052 27.0276 18.896 27.1606 18.913 27.2915C18.9299 27.4225 18.9726 27.5488 19.0386 27.6631C19.1047 27.7775 19.1927 27.8776 19.2976 27.9578C19.4025 28.0379 19.5222 28.0965 19.6499 28.1302C19.7363 28.14 19.8235 28.14 19.9099 28.1302C20.1357 28.1379 20.3574 28.069 20.539 27.9346C20.7206 27.8002 20.8513 27.6083 20.9099 27.3902L21.0199 26.9902L23.2399 31.0002C23.4238 31.303 23.6821 31.5537 23.9901 31.7287C24.2981 31.9037 24.6457 31.9972 24.9999 32.0002C25.3682 32.0143 25.7334 31.9288 26.0572 31.7529C26.3811 31.5769 26.6514 31.3169 26.8399 31.0002L28.9999 27.1702C29.0641 27.0531 29.1042 26.9242 29.1178 26.7914C29.1313 26.6585 29.1182 26.5243 29.079 26.3966C29.0399 26.2689 28.9755 26.1503 28.8898 26.0479C28.8041 25.9454 28.6987 25.8612 28.5799 25.8002Z" fill="#F8F8FF"/>
<defs>
<filter id="filter0_d_1028_3249" x="0.0935791" y="0" width="50.1356" height="50.1371" filterUnits="userSpaceOnUse" color-interpolation-filters="sRGB">
<feFlood flood-opacity="0" result="BackgroundImageFix"/>
<feColorMatrix in="SourceAlpha" type="matrix" values="0 0 0 0 0 0 0 0 0 0 0 0 0 0 0 0 0 0 127 0" result="hardAlpha"/>
<feOffset dy="2.90642"/>
<feGaussianBlur stdDeviation="1.45321"/>
<feComposite in2="hardAlpha" operator="out"/>
<feColorMatrix type="matrix" values="0 0 0 0 0 0 0 0 0 0 0 0 0 0 0 0 0 0 0.25 0"/>
<feBlend mode="normal" in2="BackgroundImageFix" result="effect1_dropShadow_1028_3249"/>
<feBlend mode="normal" in="SourceGraphic" in2="effect1_dropShadow_1028_3249" result="shape"/>
</filter>
</defs>
</svg>
