<svg width="60" height="60" viewBox="0 0 60 60" fill="none" xmlns="http://www.w3.org/2000/svg">
<path d="M55.8622 9.82812H4.13802C2.13837 9.82812 0.517334 11.4492 0.517334 13.4488V46.5523C0.517334 48.5519 2.13837 50.173 4.13802 50.173H55.8622C57.8618 50.173 59.4829 48.5519 59.4829 46.5523V13.4488C59.4829 11.4492 57.8618 9.82812 55.8622 9.82812Z" fill="white" stroke="#F3F3F3"/>
<path fill-rule="evenodd" clip-rule="evenodd" d="M18.1833 24.7507C17.747 25.273 17.0487 25.6848 16.3504 25.6259C16.2631 24.9199 16.6049 24.1698 17.005 23.7065C17.4414 23.1696 18.2051 22.7872 18.8235 22.7578C18.8962 23.4932 18.6125 24.214 18.1833 24.7507ZM18.8161 25.7657C18.201 25.7299 17.6397 25.9527 17.1863 26.1327C16.8946 26.2486 16.6474 26.3466 16.4595 26.3466C16.2485 26.3466 15.9913 26.2433 15.7024 26.1272C15.3239 25.9753 14.8912 25.8015 14.4374 25.8097C13.3973 25.8245 12.4298 26.4202 11.8988 27.3688C10.8078 29.2663 11.6152 32.0755 12.6698 33.6199C13.1864 34.3847 13.8046 35.2231 14.6192 35.1936C14.9777 35.18 15.2355 35.0694 15.5023 34.9549C15.8094 34.8231 16.1285 34.6862 16.6267 34.6862C17.1078 34.6862 17.4129 34.8196 17.7058 34.9475C17.9843 35.0693 18.2518 35.1861 18.6488 35.179C19.4927 35.1643 20.0236 34.4142 20.5401 33.6493C21.0974 32.8284 21.3422 32.0273 21.3795 31.9057L21.3838 31.8917C21.3838 31.8917 21.376 31.8875 21.3638 31.882C21.1775 31.7957 19.7536 31.1366 19.7399 29.3692C19.7263 27.8857 20.8694 27.1341 21.0494 27.0157C21.0603 27.0085 21.0677 27.0036 21.071 27.0012C20.3436 25.9128 19.2089 25.7951 18.8161 25.7657ZM24.6569 35.0981V23.633H28.912C31.1088 23.633 32.6435 25.1626 32.6435 27.3983C32.6435 29.6339 31.0796 31.1783 28.8539 31.1783H26.4172V35.0981H24.6569ZM26.4172 25.1332H28.4465C29.974 25.1332 30.8468 25.9568 30.8468 27.4056C30.8468 28.8544 29.974 29.6854 28.4393 29.6854H26.4172V25.1332ZM38.4551 33.7228C37.9896 34.62 36.964 35.1863 35.8585 35.1863C34.2218 35.1863 33.0799 34.2008 33.0799 32.7153C33.0799 31.2445 34.1855 30.3988 36.2295 30.2737L38.4261 30.1413V29.509C38.4261 28.5749 37.8224 28.0675 36.7459 28.0675C35.8585 28.0675 35.2111 28.5308 35.0801 29.2368H33.4945C33.5454 27.7513 34.9275 26.6702 36.7968 26.6702C38.8115 26.6702 40.1209 27.7366 40.1209 29.3912V35.0981H38.4916V33.7228H38.4551ZM36.3312 33.8258C35.393 33.8258 34.7965 33.3698 34.7965 32.6712C34.7965 31.9505 35.3711 31.5313 36.4695 31.4652L38.4261 31.3401V31.9873C38.4261 33.061 37.5241 33.8258 36.3312 33.8258ZM45.5252 35.5467C44.8197 37.5543 44.0123 38.2162 42.2957 38.2162C42.1648 38.2162 41.7284 38.2015 41.6265 38.1721V36.7969C41.7356 36.8116 42.0048 36.8263 42.143 36.8263C42.9212 36.8263 43.3577 36.4953 43.6267 35.635L43.7868 35.1274L40.8046 26.7805H42.6448L44.7178 33.5537H44.7542L46.8272 26.7805H48.6166L45.5252 35.5467Z" fill="black"/>
</svg>
