<svg width="60" height="60" viewBox="0 0 60 60" fill="none" xmlns="http://www.w3.org/2000/svg">
<path d="M55.8622 9.82812H4.13802C2.13837 9.82812 0.517334 11.4492 0.517334 13.4488V46.5523C0.517334 48.5519 2.13837 50.173 4.13802 50.173H55.8622C57.8618 50.173 59.4829 48.5519 59.4829 46.5523V13.4488C59.4829 11.4492 57.8618 9.82812 55.8622 9.82812Z" fill="white" stroke="#F3F3F3"/>
<path fill-rule="evenodd" clip-rule="evenodd" d="M28.8802 34.2597V29.593L31.4048 29.5921C32.4456 29.5927 33.3203 29.2657 34.029 28.611C34.7451 27.9896 35.1455 27.0962 35.1251 26.1651C35.1393 25.239 34.7396 24.3523 34.029 23.7328C33.3265 23.0746 32.3818 22.7154 31.4048 22.7351H27.3523V34.2597H28.8802ZM28.8802 28.1769V24.154L31.4427 24.1531C32.0139 24.1375 32.5644 24.3602 32.9546 24.7646C33.3472 25.1344 33.5687 25.6424 33.5687 26.1728C33.5687 26.7033 33.3472 27.2114 32.9546 27.5811C32.5596 27.977 32.0108 28.1933 31.4427 28.1769H28.8802Z" fill="#5F6368"/>
<path fill-rule="evenodd" clip-rule="evenodd" d="M41.3204 26.9944C40.6669 26.4095 39.7754 26.1172 38.646 26.1172C37.1952 26.1172 36.0996 26.632 35.3593 27.662L36.7052 28.4832C37.2025 27.7855 37.8779 27.4367 38.7314 27.4367C39.2756 27.4306 39.8022 27.6233 40.2063 27.9765C40.6091 28.2992 40.8409 28.7804 40.8374 29.2868V29.6252C40.2503 29.3034 39.5031 29.1424 38.5957 29.1424C37.5328 29.1437 36.6831 29.3852 36.0466 29.8671C35.41 30.3488 35.0917 30.9978 35.0917 31.8137C35.0779 32.5566 35.4106 33.2661 35.9972 33.7447C36.6007 34.2597 37.3508 34.5172 38.2474 34.5172C39.2977 34.5172 40.1392 34.0666 40.772 33.1654H40.8384V34.2597H42.2999V29.3999C42.3005 28.381 41.974 27.5792 41.3204 26.9944ZM37.1759 32.8114C36.8558 32.5879 36.667 32.2282 36.6691 31.8458C36.6691 31.4164 36.8769 31.0588 37.2955 30.7645C37.7099 30.4745 38.2274 30.3296 38.8481 30.3296C39.7004 30.3296 40.3648 30.5134 40.8412 30.8813C40.8412 31.5029 40.5881 32.0445 40.082 32.5062C39.6261 32.9479 39.008 33.1966 38.3632 33.1976C37.9333 33.2054 37.5139 33.069 37.1759 32.8114Z" fill="#5F6368"/>
<path fill-rule="evenodd" clip-rule="evenodd" d="M50.6897 26.375L45.5875 37.7359H44.0101L45.9035 33.7607L42.5486 26.375H44.2094L46.6343 32.0393H46.6675L49.0259 26.375H50.6897Z" fill="#5F6368"/>
<path fill-rule="evenodd" clip-rule="evenodd" d="M22.7056 28.5884C22.7062 28.1372 22.6668 27.6868 22.588 27.2422H16.1438V29.7921H19.8347C19.6821 30.615 19.1891 31.3418 18.4699 31.804V33.4592H20.6728C21.9626 32.307 22.7056 30.6031 22.7056 28.5884Z" fill="#4285F4"/>
<path fill-rule="evenodd" clip-rule="evenodd" d="M16.1437 35.0568C17.9877 35.0568 19.5404 34.47 20.6726 33.4586L18.4698 31.8034C17.8568 32.2062 17.0672 32.436 16.1437 32.436C14.3614 32.436 12.8485 31.2719 12.3076 29.7031H10.0383V31.4089C11.1982 33.6452 13.5606 35.0566 16.1437 35.0568Z" fill="#34A853"/>
<path fill-rule="evenodd" clip-rule="evenodd" d="M12.3077 29.7049C12.0216 28.8829 12.0216 27.9926 12.3077 27.1706V25.4648H10.0384C9.06825 27.3353 9.06825 29.5402 10.0384 31.4106L12.3077 29.7049Z" fill="#FBBC04"/>
<path fill-rule="evenodd" clip-rule="evenodd" d="M16.1437 24.4376C17.1182 24.4221 18.0597 24.7789 18.7651 25.4307L20.7154 23.541C19.4786 22.4156 17.8402 21.7977 16.1437 21.8168C13.5606 21.8169 11.1982 23.2284 10.0383 25.4646L12.3076 27.1704C12.8485 25.6017 14.3614 24.4376 16.1437 24.4376Z" fill="#EA4335"/>
</svg>
