<svg width="60" height="60" viewBox="0 0 60 60" fill="none" xmlns="http://www.w3.org/2000/svg">
<path d="M55.8622 9.82812H4.13802C2.13837 9.82812 0.517334 11.4492 0.517334 13.4488V46.5523C0.517334 48.5519 2.13837 50.173 4.13802 50.173H55.8622C57.8618 50.173 59.4829 48.5519 59.4829 46.5523V13.4488C59.4829 11.4492 57.8618 9.82812 55.8622 9.82812Z" fill="white" stroke="#F3F3F3"/>
<path d="M35.4934 39.2885H24.7854V20.1875H35.4934V39.2885Z" fill="#FF5F00"/>
<path d="M25.4715 29.7338C25.4715 25.859 27.2992 22.4075 30.1456 20.1832C28.0641 18.5567 25.4372 17.5859 22.5823 17.5859C15.8237 17.5859 10.345 23.0246 10.345 29.7338C10.345 36.4428 15.8237 41.8815 22.5823 41.8815C25.4372 41.8815 28.0641 40.9108 30.1456 39.2842C27.2992 37.06 25.4715 33.6084 25.4715 29.7338Z" fill="#EB001B"/>
<path d="M49.9351 29.7338C49.9351 36.4428 44.4564 41.8815 37.6978 41.8815C34.8429 41.8815 32.216 40.9108 30.1338 39.2842C32.9809 37.06 34.8086 33.6084 34.8086 29.7338C34.8086 25.859 32.9809 22.4075 30.1338 20.1832C32.216 18.5567 34.8429 17.5859 37.6978 17.5859C44.4564 17.5859 49.9351 23.0246 49.9351 29.7338Z" fill="#F79E1B"/>
</svg>
