<svg width="60" height="60" viewBox="0 0 60 60" fill="none" xmlns="http://www.w3.org/2000/svg">
<path d="M55.8622 9.82812H4.13802C2.13837 9.82812 0.517334 11.4492 0.517334 13.4488V46.5523C0.517334 48.5519 2.13837 50.173 4.13802 50.173H55.8622C57.8618 50.173 59.4829 48.5519 59.4829 46.5523V13.4488C59.4829 11.4492 57.8618 9.82812 55.8622 9.82812Z" fill="white" stroke="#F3F3F3"/>
<path d="M26.6397 37.6905H22.645L25.1436 23.207H29.1381L26.6397 37.6905Z" fill="#15195A"/>
<path d="M41.1208 23.562C40.3328 23.2689 39.0831 22.9453 37.5379 22.9453C33.593 22.9453 30.8151 24.9175 30.7981 27.7369C30.7653 29.8172 32.787 30.9726 34.2991 31.6662C35.8445 32.375 36.3699 32.8377 36.3699 33.4694C36.3542 34.4398 35.1211 34.887 33.9709 34.887C32.3761 34.887 31.5216 34.6564 30.2229 34.1166L29.697 33.8852L29.1379 37.1363C30.0749 37.5365 31.801 37.8916 33.593 37.9072C37.7846 37.9072 40.5133 35.9656 40.5456 32.961C40.5615 31.3122 39.494 30.0488 37.1925 29.0165C35.7954 28.3538 34.9397 27.9069 34.9397 27.2289C34.9562 26.6124 35.6635 25.9811 37.2406 25.9811C38.5392 25.9502 39.4934 26.2428 40.2162 26.5357L40.5775 26.6895L41.1208 23.562Z" fill="#15195A"/>
<path fill-rule="evenodd" clip-rule="evenodd" d="M48.2709 23.207H51.3607L54.5834 37.6903H50.8847C50.8847 37.6903 50.5228 36.0262 50.4081 35.5177H45.2793C45.131 35.9027 44.4409 37.6903 44.4409 37.6903H40.2495L46.183 24.4087C46.5941 23.4688 47.318 23.207 48.2709 23.207ZM48.0247 28.5072C48.0247 28.5072 46.7588 31.7274 46.4298 32.5595H49.7502C49.5859 31.8354 48.8294 28.3685 48.8294 28.3685L48.5503 27.1206C48.4327 27.4419 48.2627 27.8837 48.148 28.1818C48.0703 28.3837 48.018 28.5196 48.0247 28.5072Z" fill="#15195A"/>
<path fill-rule="evenodd" clip-rule="evenodd" d="M5.33699 23.207H11.7639C12.6352 23.2375 13.342 23.4995 13.572 24.4245L14.9688 31.0791L14.9692 31.0804L15.3966 33.0833L19.3087 23.207H23.5327L17.2538 37.6752H13.0296L9.4692 25.0903C8.24075 24.417 6.83875 23.8754 5.27124 23.4997L5.33699 23.207Z" fill="#15195A"/>
</svg>
