<svg width="32" height="32" viewBox="0 0 32 32" fill="none" xmlns="http://www.w3.org/2000/svg">
<g clip-path="url(#clip0_525_224)">
<path d="M10 24C11.1046 24 12 24.8955 12 26C12 27.1045 11.1046 28 10 28C8.89543 28 8 27.1045 8 26C8 24.8955 8.89543 24 10 24Z" stroke="#52796F" stroke-width="1.5"/>
<path d="M22 24C23.1045 24 24 24.8953 24 26C24 27.1045 23.1045 28 22 28C20.8955 28 20 27.1045 20 26C20 24.8953 20.8955 24 22 24Z" stroke="#52796F" stroke-width="1.5"/>
<path d="M2.66675 4L3.01503 4.12245C4.75048 4.7326 5.61822 5.03768 6.11454 5.76397C6.61086 6.49028 6.61085 7.45501 6.61085 9.38448V13.0133C6.61085 16.9355 6.69517 18.2297 7.85038 19.4483C9.00558 20.6667 10.8648 20.6667 14.5834 20.6667H16.0001M21.6539 20.6667C23.7353 20.6667 24.7759 20.6667 25.5115 20.0672C26.2471 19.4677 26.4573 18.4485 26.8774 16.41L27.5438 13.177C28.0066 10.8583 28.2379 9.69889 27.6461 8.92944C27.0542 8.16 25.0318 8.16 22.7851 8.16H14.6981M6.61085 8.16H9.33341" stroke="#52796F" stroke-width="1.5" stroke-linecap="round"/>
</g>
<defs>
<clipPath id="clip0_525_224">
<rect width="32" height="32" fill="white"/>
</clipPath>
</defs>
</svg>
