<svg width="32" height="32" viewBox="0 0 32 32" fill="none" xmlns="http://www.w3.org/2000/svg">
<path d="M16.0001 7.33405L15.2795 8.02752C15.4681 8.22339 15.7282 8.33405 16.0001 8.33405C16.2719 8.33405 16.5321 8.22339 16.7206 8.02752L16.0001 7.33405ZM9.33423 21.8944C8.90779 21.5435 8.27759 21.6047 7.92663 22.0311C7.57567 22.4575 7.63685 23.0877 8.06329 23.4387L9.33423 21.8944ZM3.12273 17.8819C3.38773 18.3664 3.99537 18.5444 4.47992 18.2793C4.96448 18.0143 5.14244 17.4067 4.87743 16.9221L3.12273 17.8819ZM3.66675 12.1827C3.66675 9.31486 5.28724 6.90991 7.49923 5.8988C9.64817 4.91652 12.5356 5.17666 15.2795 8.02752L16.7206 6.64059C13.4647 3.25791 9.68553 2.7004 6.66776 4.07983C3.71303 5.43044 1.66675 8.56659 1.66675 12.1827H3.66675ZM11.33 25.9997C12.0129 26.5381 12.7461 27.1123 13.4891 27.5464C14.2319 27.9804 15.0795 28.3332 16.0001 28.3332V26.3332C15.5873 26.3332 15.1015 26.1723 14.4982 25.8196C13.8951 25.4672 13.2695 24.982 12.5681 24.4291L11.33 25.9997ZM20.6702 25.9997C22.5723 24.5001 25.0038 22.782 26.9111 20.6343C28.8527 18.448 30.3334 15.7367 30.3334 12.1827H28.3334C28.3334 15.1125 27.1345 17.3708 25.4157 19.3063C23.6626 21.2803 21.4529 22.836 19.4321 24.4291L20.6702 25.9997ZM30.3334 12.1827C30.3334 8.56659 28.2871 5.43044 25.3323 4.07983C22.3146 2.7004 18.5354 3.25791 15.2795 6.64059L16.7206 8.02752C19.4645 5.17666 22.3519 4.91652 24.5009 5.8988C26.7129 6.90991 28.3334 9.31486 28.3334 12.1827H30.3334ZM19.4321 24.4291C18.7306 24.982 18.105 25.4672 17.5019 25.8196C16.8986 26.1723 16.4129 26.3332 16.0001 26.3332V28.3332C16.9206 28.3332 17.7682 27.9804 18.511 27.5464C19.2541 27.1123 19.9871 26.5381 20.6702 25.9997L19.4321 24.4291ZM12.5681 24.4291C11.5069 23.5925 10.4285 22.7949 9.33423 21.8944L8.06329 23.4387C9.17032 24.3497 10.3397 25.2191 11.33 25.9997L12.5681 24.4291ZM4.87743 16.9221C4.12915 15.554 3.66675 14.0043 3.66675 12.1827H1.66675C1.66675 14.366 2.22668 16.2435 3.12273 17.8819L4.87743 16.9221Z" fill="#52796F"/>
</svg>
