<svg width="32" height="32" viewBox="0 0 32 32" fill="none" xmlns="http://www.w3.org/2000/svg">
<path d="M16.2135 14.4946C16.0801 14.4813 15.9201 14.4813 15.7735 14.4946C12.6001 14.388 10.0801 11.788 10.0801 8.58797C10.0801 5.3213 12.7201 2.66797 16.0001 2.66797C19.2668 2.66797 21.9201 5.3213 21.9201 8.58797C21.9068 11.788 19.3868 14.388 16.2135 14.4946Z" stroke="#52796F" stroke-width="1.5" stroke-linecap="round" stroke-linejoin="round"/>
<path d="M9.54671 19.4159C6.32004 21.5759 6.32004 25.0959 9.54671 27.2426C13.2134 29.6959 19.2267 29.6959 22.8934 27.2426C26.1201 25.0826 26.1201 21.5626 22.8934 19.4159C19.2401 16.9759 13.2267 16.9759 9.54671 19.4159Z" stroke="#52796F" stroke-width="1.5" stroke-linecap="round" stroke-linejoin="round"/>
</svg>
